<svg width="784" height="354" viewBox="0 0 784 354" fill="none" xmlns="http://www.w3.org/2000/svg">
<mask id="mask0_273_83" style="mask-type:luminance" maskUnits="userSpaceOnUse" x="12" y="12" width="761" height="330">
<path d="M392.056 341.883C392.056 341.883 586.041 341.883 711.401 341.69C734.473 341.69 755.545 324.945 765.761 298.475C775.969 272.014 773.545 240.438 759.509 217.022C696.645 110.866 587.84 12.061 392.056 12.061C196.279 12.061 87.4655 110.866 24.6093 217.022C10.5662 240.438 8.14181 272.014 18.3576 298.475C28.5663 324.945 49.6382 341.69 72.7101 341.69C198.07 341.883 392.056 341.883 392.056 341.883Z" fill="white"/>
</mask>
<g mask="url(#mask0_273_83)">
<path d="M402.121 126.324C498.48 126.324 576.594 75.169 576.594 12.0656C576.594 -51.0378 498.48 -102.193 402.121 -102.193C305.763 -102.193 227.649 -51.0378 227.649 12.0656C227.649 75.169 305.763 126.324 402.121 126.324Z" stroke="#1E120D" stroke-width="13.7795" stroke-miterlimit="1.5" stroke-linecap="round" stroke-linejoin="round"/>
<path fill-rule="evenodd" clip-rule="evenodd" d="M402.121 -138.171C469.88 -138.171 529.63 -115.495 566.871 -82.229C596.302 -55.9485 612.571 -22.9915 612.571 12.066C612.571 47.1163 596.302 80.073 566.871 106.354C529.63 139.62 469.88 162.296 402.121 162.296C334.362 162.296 274.612 139.62 237.36 106.354C207.941 80.073 191.671 47.1163 191.671 12.066C191.671 -22.9915 207.941 -55.9485 237.36 -82.229C274.612 -115.495 334.362 -138.171 402.121 -138.171Z" stroke="#1E120D" stroke-width="13.7795" stroke-miterlimit="1.5" stroke-linecap="round" stroke-linejoin="round"/>
</g>
<path d="M392.056 341.883C392.056 341.883 586.041 341.883 711.401 341.69C734.473 341.69 755.545 324.945 765.761 298.475C775.969 272.014 773.545 240.438 759.509 217.022C696.645 110.866 587.84 12.061 392.056 12.061C196.279 12.061 87.4655 110.866 24.6093 217.022C10.5662 240.438 8.14181 272.014 18.3576 298.475C28.5663 324.945 49.6382 341.69 72.7101 341.69C198.07 341.883 392.056 341.883 392.056 341.883Z" stroke="#1E120D" stroke-width="22.9429" stroke-miterlimit="10"/>
<path d="M599.705 256.181L605.821 241.053L623.261 283L633 259.161L605.821 192L580 256.181H599.705Z" fill="black"/>
</svg>
