<svg width="32" height="32" viewBox="0 0 32 32" fill="none" xmlns="http://www.w3.org/2000/svg">
<path d="M16 0.604652C13.8989 0.604652 11.8183 1.01553 9.87706 1.81381C7.93586 2.6121 6.17203 3.78217 4.68629 5.25721C1.68571 8.23619 0 12.2766 0 16.4895C0 23.5106 4.592 29.4674 10.944 31.58C11.744 31.7071 12 31.2147 12 30.7858V28.1013C7.568 29.0544 6.624 25.9727 6.624 25.9727C5.888 24.1301 4.848 23.6376 4.848 23.6376C3.392 22.6528 4.96 22.6845 4.96 22.6845C6.56 22.7957 7.408 24.3207 7.408 24.3207C8.8 26.7352 11.152 26.0204 12.064 25.6391C12.208 24.6066 12.624 23.9077 13.072 23.5106C9.52 23.1134 5.792 21.7473 5.792 15.6952C5.792 13.932 6.4 12.5183 7.44 11.3904C7.28 10.9933 6.72 9.3413 7.6 7.19685C7.6 7.19685 8.944 6.76796 12 8.8171C13.264 8.46764 14.64 8.2929 16 8.2929C17.36 8.2929 18.736 8.46764 20 8.8171C23.056 6.76796 24.4 7.19685 24.4 7.19685C25.28 9.3413 24.72 10.9933 24.56 11.3904C25.6 12.5183 26.208 13.932 26.208 15.6952C26.208 21.7632 22.464 23.0976 18.896 23.4947C19.472 23.9871 20 24.9561 20 26.4334V30.7858C20 31.2147 20.256 31.723 21.072 31.58C27.424 29.4515 32 23.5106 32 16.4895C32 14.4034 31.5861 12.3378 30.7821 10.4106C29.978 8.48338 28.7994 6.73225 27.3137 5.25721C25.828 3.78217 24.0641 2.6121 22.1229 1.81381C20.1817 1.01553 18.1012 0.604652 16 0.604652Z" fill="black"/>
</svg>
