<svg width="32" height="31" viewBox="0 0 32 31" fill="none" xmlns="http://www.w3.org/2000/svg">
<path d="M27.9862 26.3547H24.8862V9.9484L15.5862 16.9797L6.28618 9.9484V26.3547H3.18618V3.85465H5.04618L15.5862 11.8234L26.1262 3.85465H27.9862M27.9862 0.104652H3.18618C1.46568 0.104652 0.0861816 1.7734 0.0861816 3.85465V26.3547C0.0861816 27.3492 0.412788 28.303 0.99415 29.0063C1.57551 29.7096 2.36401 30.1047 3.18618 30.1047H27.9862C28.8084 30.1047 29.5968 29.7096 30.1782 29.0063C30.7596 28.303 31.0862 27.3492 31.0862 26.3547V3.85465C31.0862 2.86009 30.7596 1.90626 30.1782 1.203C29.5968 0.49974 28.8084 0.104652 27.9862 0.104652Z" fill="black"/>
</svg>
