<svg width="493" height="599" viewBox="0 0 493 599" fill="none" xmlns="http://www.w3.org/2000/svg">
<path fill-rule="evenodd" clip-rule="evenodd" d="M246.174 78.4101C150.742 78.0072 92.1161 129.475 62.0873 229.194C52.6341 260.597 49.5907 296.309 51.3605 332.065C38.8785 333.079 29.2096 339.374 23.3607 348.137C8.33193 370.633 26.1521 401.065 53.1305 403.065C55.7276 403.259 58.5117 403.468 61.3606 403.676C61.3606 403.676 73.4183 587.835 246.174 587.835C418.922 587.835 430.979 403.676 430.979 403.676C433.836 403.468 436.62 403.259 439.21 403.065C466.188 401.065 484.016 370.633 468.987 348.137C463.131 339.374 453.469 333.079 440.98 332.065C442.756 296.309 439.713 260.597 430.26 229.194C400.231 129.475 341.598 78.0072 246.174 78.4101Z" stroke="black" stroke-width="21.5827" stroke-miterlimit="1.5" stroke-linecap="round" stroke-linejoin="round"/>
<path d="M433.38 381.893C435.272 375.519 437.97 370.267 439.093 365.346C439.719 362.915 439.798 360.886 439.136 358.828C438.459 356.663 436.301 354.742 433.985 352.202C437.229 351.994 441.064 352.591 443.762 355.771C446.56 358.9 446.841 363.505 446.014 366.958C445.085 370.49 443.409 373.497 441.244 375.987C439.093 378.476 436.524 380.576 433.38 381.893Z" fill="#1E120D"/>
<path d="M58.9489 385.217C55.8051 383.9 53.2366 381.799 51.0928 379.303C48.9273 376.807 47.2511 373.807 46.323 370.274C45.4885 366.828 45.7691 362.224 48.5677 359.087C51.2655 355.907 55.0999 355.31 58.3445 355.519C56.028 358.058 53.8699 359.972 53.1936 362.145C52.5318 364.202 52.6108 366.224 53.2367 368.663C54.359 373.591 57.0569 378.842 58.9489 385.217Z" fill="#1E120D"/>
<path d="M382.716 416.712C383.414 433.288 367.536 447.799 347.256 449.122C326.975 450.446 309.968 438.079 309.27 421.504C308.572 404.928 324.45 390.417 344.731 389.094C365.004 387.77 382.019 400.137 382.716 416.712Z" fill="#FFC9C9"/>
<path d="M163.041 424.504C161.451 440.986 143.811 451.907 123.646 448.892C103.48 445.885 88.4227 430.079 90.0126 413.597C91.6026 397.115 109.243 386.194 129.408 389.209C149.574 392.223 164.631 408.022 163.041 424.504Z" fill="#FFC9C9"/>
<path d="M194.238 411.992C200.533 417.956 207.03 423.006 213.871 426.668C220.785 430.229 228.008 431.884 235.26 431.502C242.54 430.898 249.728 428.272 256.951 424.877L267.576 418.805C271.03 416.488 274.505 414.121 278.404 412.006C276.224 415.74 273.62 419.222 270.994 422.754C268.015 425.92 264.85 429.042 261.411 431.884C254.188 437.107 245.605 441.409 235.915 442.121C226.231 442.733 216.541 439.279 209.353 433.596C202.181 427.848 196.835 420.337 194.238 411.992Z" fill="#FF3E3E"/>
<path d="M236.703 391.698C239.523 387.18 242.977 383.612 246.653 380.389C250.3 377.108 254.25 374.288 258.401 371.77L258.437 383.158C251.063 377.712 247.336 370.554 244.941 363.532C242.559 356.475 241.473 349.173 242.156 341.792C246.358 347.842 249.998 353.691 253.84 359.058C257.689 364.345 261.833 369.202 265.955 371.756L274.408 376.979L265.991 383.137C262.07 386.007 257.955 388.583 253.531 390.691C249.142 392.856 244.523 394.676 239.272 395.554C237.89 395.784 236.581 394.849 236.351 393.468C236.25 392.82 236.394 392.202 236.703 391.698Z" fill="#EB7D7A"/>
<path d="M463.373 156.74C472.503 121.769 490.769 29.0136 367.596 28.9848C244.423 28.956 273.308 74.5819 220.092 38.0783C166.877 1.57472 130.387 -13.6411 98.445 18.2798C66.5026 50.2078 109.071 114.086 86.258 114.078C63.445 114.071 49.7688 80.6179 16.3084 114.064C-17.1521 147.51 33.7831 163.488 16.2939 180.97C-0.792446 198.05 -17.4327 286.632 46.3443 333.028C47.9989 332.675 49.5818 332.201 51.3516 332.057C49.5746 296.301 52.6105 260.589 62.0709 229.186C92.0925 129.467 150.733 77.9992 246.157 78.4021C315.409 78.6898 368.308 119.719 394.682 181.222C403.143 200.956 407.085 222.445 408.826 243.848C411.488 276.553 411.172 305.92 409.1 332.51C415.632 333.438 421.121 336.057 425.841 339.467C430.028 338.661 432.891 337.798 433.819 336.87C446.747 323.949 492.222 284.481 492.236 244.942C492.258 205.409 454.244 191.719 463.373 156.74Z" fill="#1E120D"/>
<path d="M137.995 96.0574C78.4698 135.086 19.0452 225.057 38.8798 285.928C47.0093 299.021 54.3402 316.007 58.038 339.144C58.038 339.144 62.2394 245.446 90.815 224.762C118.47 204.741 128.002 181.173 141.06 140.561C141.06 140.561 208.175 114.503 262.052 168.403C340.585 246.964 399.678 210.079 399.678 210.079C399.678 210.079 368.506 329 433.383 352.165C484.714 71.0862 225.34 38.784 137.995 96.0574Z" fill="#1E120D"/>
<path d="M169.151 352.159C198.303 352.159 221.935 328.527 221.935 299.375C221.935 270.223 198.303 246.591 169.151 246.591C139.999 246.591 116.367 270.223 116.367 299.375C116.367 328.527 139.999 352.159 169.151 352.159Z" fill="#1E120D"/>
<mask id="mask0_273_82" style="mask-type:luminance" maskUnits="userSpaceOnUse" x="116" y="246" width="106" height="107">
<path d="M169.151 352.159C198.303 352.159 221.935 328.527 221.935 299.375C221.935 270.223 198.303 246.591 169.151 246.591C139.999 246.591 116.367 270.223 116.367 299.375C116.367 328.527 139.999 352.159 169.151 352.159Z" fill="white"/>
</mask>
<g mask="url(#mask0_273_82)">
<path d="M194.707 240.742C194.707 240.742 139.606 274.713 163.168 295.08C194.628 322.274 110.578 356.634 110.578 356.634" stroke="white" stroke-width="14.3885" stroke-miterlimit="1.5" stroke-linecap="round" stroke-linejoin="round"/>
</g>
<path d="M169.151 352.159C198.303 352.159 221.935 328.527 221.935 299.375C221.935 270.223 198.303 246.591 169.151 246.591C139.999 246.591 116.367 270.223 116.367 299.375C116.367 328.527 139.999 352.159 169.151 352.159Z" stroke="#1E120D" stroke-width="14.3885" stroke-miterlimit="1.5" stroke-linecap="round" stroke-linejoin="round"/>
<path d="M96.1017 299.375L48.1162 323.151" stroke="#1E120D" stroke-width="14.3885" stroke-miterlimit="1.5" stroke-linecap="round" stroke-linejoin="round"/>
<path fill-rule="evenodd" clip-rule="evenodd" d="M116.367 293.669V305.072H101.799C100.288 305.072 98.8348 304.475 97.7701 303.41C96.6982 302.339 96.1011 300.892 96.1011 299.374C96.1011 297.856 96.6982 296.41 97.7701 295.338C98.8348 294.274 100.288 293.669 101.799 293.669C107.792 293.669 116.367 293.669 116.367 293.669Z" fill="#1E120D" stroke="#1E120D" stroke-width="14.3885" stroke-miterlimit="1.5" stroke-linecap="round" stroke-linejoin="round"/>
<path d="M100.928 304.675C103.857 304.675 106.232 302.3 106.232 299.371C106.232 296.441 103.857 294.066 100.928 294.066C97.9983 294.066 95.6235 296.441 95.6235 299.371C95.6235 302.3 97.9983 304.675 100.928 304.675Z" fill="white"/>
<path d="M308.391 352.159C279.239 352.159 255.607 328.527 255.607 299.375C255.607 270.223 279.239 246.591 308.391 246.591C337.543 246.591 361.175 270.223 361.175 299.375C361.175 328.527 337.543 352.159 308.391 352.159Z" fill="#1E120D"/>
<mask id="mask1_273_82" style="mask-type:luminance" maskUnits="userSpaceOnUse" x="255" y="246" width="107" height="107">
<path d="M308.391 352.159C279.239 352.159 255.607 328.527 255.607 299.375C255.607 270.223 279.239 246.591 308.391 246.591C337.543 246.591 361.175 270.223 361.175 299.375C361.175 328.527 337.543 352.159 308.391 352.159Z" fill="white"/>
</mask>
<g mask="url(#mask1_273_82)">
<path d="M282.835 240.742C282.835 240.742 337.936 274.713 314.374 295.08C282.914 322.274 366.964 356.634 366.964 356.634" stroke="white" stroke-width="14.3885" stroke-miterlimit="1.5" stroke-linecap="round" stroke-linejoin="round"/>
</g>
<path d="M308.391 352.159C279.239 352.159 255.607 328.527 255.607 299.375C255.607 270.223 279.239 246.591 308.391 246.591C337.543 246.591 361.175 270.223 361.175 299.375C361.175 328.527 337.543 352.159 308.391 352.159Z" stroke="#1E120D" stroke-width="14.3885" stroke-miterlimit="1.5" stroke-linecap="round" stroke-linejoin="round"/>
<path d="M381.44 299.375L429.426 323.151" stroke="#1E120D" stroke-width="14.3885" stroke-miterlimit="1.5" stroke-linecap="round" stroke-linejoin="round"/>
<path fill-rule="evenodd" clip-rule="evenodd" d="M361.174 293.669V305.072H377.289C378.39 305.072 379.448 304.641 380.225 303.864C381.002 303.08 381.44 302.029 381.44 300.928C381.44 299.914 381.44 298.835 381.44 297.82C381.44 296.72 381.002 295.662 380.225 294.885C379.448 294.108 378.39 293.669 377.289 293.669C371.361 293.669 361.174 293.669 361.174 293.669Z" fill="#1E120D"/>
<path fill-rule="evenodd" clip-rule="evenodd" d="M361.174 286.476H377.289L379.512 286.699L381.635 287.339L383.584 288.382L385.311 289.799L386.728 291.526L387.771 293.483L388.412 295.598L388.635 297.821V300.929L388.412 303.152L387.771 305.267L386.728 307.224L385.311 308.95L383.584 310.368L381.635 311.404L379.512 312.051L377.289 312.267H361.174C357.203 312.267 353.98 309.051 353.98 305.073V293.67C353.98 289.699 357.203 286.476 361.174 286.476ZM374.246 300.864C374.246 300.886 374.246 300.907 374.246 300.929V300.864ZM374.246 297.879V297.821C374.246 297.842 374.246 297.864 374.246 297.879Z" fill="#1E120D"/>
<path d="M376.614 304.675C373.685 304.675 371.31 302.3 371.31 299.371C371.31 296.441 373.685 294.066 376.614 294.066C379.544 294.066 381.918 296.441 381.918 299.371C381.918 302.3 379.544 304.675 376.614 304.675Z" fill="white"/>
<path d="M221.937 299.373C232.7 287.387 243.462 288.452 254.225 299.373" stroke="#1E120D" stroke-width="14.3885" stroke-miterlimit="1.5" stroke-linecap="round" stroke-linejoin="round"/>
</svg>
