<svg width="31" height="31" viewBox="0 0 31 31" fill="none" xmlns="http://www.w3.org/2000/svg">
<path d="M8.72499 0.0615692H21.3612C26.175 0.0615692 30.0862 3.97277 30.0862 8.78656V21.4227C30.0862 23.7368 29.1669 25.956 27.5307 27.5922C25.8944 29.2285 23.6752 30.1477 21.3612 30.1477H8.72499C3.9112 30.1477 0 26.2365 0 21.4227V8.78656C0 6.47255 0.919237 4.25331 2.55549 2.61706C4.19174 0.980806 6.41098 0.0615692 8.72499 0.0615692ZM8.42413 3.07019C6.98784 3.07019 5.61039 3.64075 4.59478 4.65635C3.57918 5.67196 3.00862 7.04941 3.00862 8.48569V21.7236C3.00862 24.7172 5.43055 27.1391 8.42413 27.1391H21.662C23.0983 27.1391 24.4758 26.5686 25.4914 25.5529C26.507 24.5373 27.0775 23.1599 27.0775 21.7236V8.48569C27.0775 5.49212 24.6556 3.07019 21.662 3.07019H8.42413ZM22.9407 5.32665C23.4394 5.32665 23.9177 5.52476 24.2703 5.8774C24.623 6.23004 24.8211 6.70832 24.8211 7.20703C24.8211 7.70574 24.623 8.18402 24.2703 8.53667C23.9177 8.88931 23.4394 9.08742 22.9407 9.08742C22.442 9.08742 21.9637 8.88931 21.6111 8.53667C21.2584 8.18402 21.0603 7.70574 21.0603 7.20703C21.0603 6.70832 21.2584 6.23004 21.6111 5.8774C21.9637 5.52476 22.442 5.32665 22.9407 5.32665ZM15.0431 7.58311C17.0379 7.58311 18.9511 8.37556 20.3616 9.78612C21.7722 11.1967 22.5646 13.1098 22.5646 15.1047C22.5646 17.0995 21.7722 19.0126 20.3616 20.4232C18.9511 21.8337 17.0379 22.6262 15.0431 22.6262C13.0482 22.6262 11.1351 21.8337 9.72455 20.4232C8.31399 19.0126 7.52154 17.0995 7.52154 15.1047C7.52154 13.1098 8.31399 11.1967 9.72455 9.78612C11.1351 8.37556 13.0482 7.58311 15.0431 7.58311ZM15.0431 10.5917C13.8462 10.5917 12.6983 11.0672 11.852 11.9135C11.0056 12.7599 10.5302 13.9077 10.5302 15.1047C10.5302 16.3016 11.0056 17.4494 11.852 18.2958C12.6983 19.1421 13.8462 19.6176 15.0431 19.6176C16.24 19.6176 17.3879 19.1421 18.2342 18.2958C19.0805 17.4494 19.556 16.3016 19.556 15.1047C19.556 13.9077 19.0805 12.7599 18.2342 11.9135C17.3879 11.0672 16.24 10.5917 15.0431 10.5917Z" fill="black"/>
</svg>
