<svg width="203" height="105" viewBox="0 0 203 105" fill="none" xmlns="http://www.w3.org/2000/svg">
<path fill-rule="evenodd" clip-rule="evenodd" d="M35.7719 31.8235C36.2951 31.5658 36.9199 31.597 37.4197 31.9094C37.9196 32.214 38.2163 32.7606 38.2163 33.3464V70.7006C38.2163 71.2864 37.9196 71.833 37.4197 72.1454C36.9199 72.45 36.2951 72.4812 35.7719 72.2235C29.3913 69.0606 12.0848 60.4776 2.20389 55.5809C0.854359 54.9093 0 53.5269 0 52.0274C0 50.5201 0.854359 49.1456 2.20389 48.4739C12.0848 43.5694 29.3913 34.9865 35.7719 31.8235Z" fill="url(#paint0_linear_279_86)"/>
<path fill-rule="evenodd" clip-rule="evenodd" d="M66.2832 83.1119V20.938C66.2832 18.3374 67.7592 15.9632 70.0866 14.8074L98.6782 0.632593C100.381 -0.210864 102.388 -0.210864 104.09 0.632593L130.69 13.8233C131.69 14.3154 132.331 15.3229 132.37 16.4397C132.401 17.5487 131.823 18.5952 130.854 19.1497L73.9211 52.0289L130.854 84.9003C131.823 85.4547 132.401 86.5012 132.37 87.618C132.331 88.727 131.69 89.7346 130.69 90.2266L102.114 104.401C101.654 104.628 101.115 104.628 100.654 104.401L70.0866 89.2425C67.7592 88.0867 66.2832 85.7125 66.2832 83.1119Z" fill="url(#paint1_linear_279_86)"/>
<path fill-rule="evenodd" clip-rule="evenodd" d="M168.313 71.5781C166.837 72.3123 165.088 72.2497 163.658 71.4297C157.832 68.0637 142.338 59.1215 134.59 54.6465C133.661 54.1076 133.083 53.108 133.083 52.0302C133.083 50.9447 133.661 49.945 134.59 49.4061C142.338 44.9389 157.832 35.9889 163.658 32.6229C165.088 31.8029 166.837 31.7482 168.313 32.4745C174.428 35.5125 190.969 43.7127 200.567 48.4767C201.918 49.1484 202.77 50.5229 202.77 52.0302C202.77 53.5297 201.918 54.9121 200.567 55.5837C190.969 60.3399 174.428 68.5401 168.313 71.5781Z" fill="url(#paint2_linear_279_86)"/>
<defs>
<linearGradient id="paint0_linear_279_86" x1="31.5078" y1="70.1071" x2="19.111" y2="40.0877" gradientUnits="userSpaceOnUse">
<stop stop-color="#FF7200"/>
<stop offset="0.55" stop-color="#FF780C"/>
<stop offset="1" stop-color="#FF8F3A"/>
</linearGradient>
<linearGradient id="paint1_linear_279_86" x1="99.3264" y1="37.3543" x2="38.2166" y2="-57.2019" gradientUnits="userSpaceOnUse">
<stop stop-color="#0081CE"/>
<stop offset="1" stop-color="#0081CE"/>
</linearGradient>
<linearGradient id="paint2_linear_279_86" x1="184.182" y1="66.8141" x2="161.422" y2="31.3072" gradientUnits="userSpaceOnUse">
<stop stop-color="#E5000B"/>
<stop offset="0.46" stop-color="#EC111C"/>
<stop offset="1" stop-color="#FF3D47"/>
</linearGradient>
</defs>
</svg>
