<svg width="31" height="31" viewBox="0 0 31 31" fill="none" xmlns="http://www.w3.org/2000/svg">
<path d="M26.8294 0.0615692C27.716 0.0615692 28.5663 0.413767 29.1932 1.04068C29.8201 1.6676 30.1723 2.51788 30.1723 3.40448V26.8048C30.1723 27.6914 29.8201 28.5417 29.1932 29.1686C28.5663 29.7955 27.716 30.1477 26.8294 30.1477H3.42909C2.54249 30.1477 1.69221 29.7955 1.0653 29.1686C0.43838 28.5417 0.0861816 27.6914 0.0861816 26.8048V3.40448C0.0861816 2.51788 0.43838 1.6676 1.0653 1.04068C1.69221 0.413767 2.54249 0.0615692 3.42909 0.0615692H26.8294ZM25.9937 25.9691V17.1104C25.9937 15.6652 25.4196 14.2793 24.3978 13.2574C23.3759 12.2355 21.9899 11.6615 20.5448 11.6615C19.124 11.6615 17.4693 12.5306 16.667 13.8343V11.979H12.0036V25.9691H16.667V17.7288C16.667 16.4418 17.7033 15.3888 18.9903 15.3888C19.6109 15.3888 20.2061 15.6353 20.645 16.0742C21.0838 16.513 21.3304 17.1082 21.3304 17.7288V25.9691H25.9937ZM6.57142 9.35485C7.31616 9.35485 8.0304 9.05901 8.55701 8.5324C9.08362 8.00579 9.37946 7.29155 9.37946 6.54681C9.37946 4.99236 8.12587 3.72205 6.57142 3.72205C5.82225 3.72205 5.10376 4.01966 4.57402 4.5494C4.04427 5.07915 3.74667 5.79764 3.74667 6.54681C3.74667 8.10126 5.01697 9.35485 6.57142 9.35485ZM8.89474 25.9691V11.979H4.26482V25.9691H8.89474Z" fill="black"/>
</svg>
